PathFileType	4	(X/Y/Z)	E:/Microgravity/Neeraj_13_07_24_t02 _without_weight_pp.trc	
DataRate	CameraRate	NumFrames	NumMarkers	Units	OrigDataRate	OrigDataStartFrame	OrigNumFrames	
120.00	120.00	88	5	m	120.00	4412	7058	
Frame#	Time	RHAND			r_radius_styloid			RWRB			r_humerus_epicondyle			r_acromion			
		X1	Y1	Z1	X2	Y2	Z2	X3	Y3	Z3	X4	Y4	Z4	X5	Y5	Z5	

4412	36.758	0.20947	1.41812	0.20376	0.15175	1.34754	0.26422	0.19880	1.30936	0.18516	-0.00875	1.20068	0.27811	-0.02065	1.51944	0.19219 
4413	36.767	0.20946	1.41810	0.20375	0.15173	1.34752	0.26421	0.19878	1.30933	0.18516	-0.00880	1.20067	0.27809	-0.02067	1.51943	0.19219 
4414	36.775	0.20946	1.41808	0.20374	0.15171	1.34749	0.26421	0.19876	1.30931	0.18516	-0.00884	1.20065	0.27806	-0.02068	1.51943	0.19220 
4415	36.783	0.20947	1.41805	0.20373	0.15170	1.34745	0.26420	0.19875	1.30928	0.18517	-0.00890	1.20063	0.27801	-0.02069	1.51942	0.19221 
4416	36.792	0.20948	1.41802	0.20372	0.15169	1.34742	0.26420	0.19874	1.30924	0.18517	-0.00896	1.20060	0.27794	-0.02071	1.51941	0.19223 
4417	36.800	0.20951	1.41799	0.20370	0.15168	1.34738	0.26420	0.19874	1.30920	0.18517	-0.00904	1.20057	0.27785	-0.02072	1.51940	0.19224 
4418	36.808	0.20954	1.41796	0.20368	0.15168	1.34734	0.26421	0.19873	1.30916	0.18518	-0.00915	1.20052	0.27771	-0.02073	1.51939	0.19225 
4419	36.817	0.20960	1.41792	0.20364	0.15169	1.34730	0.26421	0.19873	1.30912	0.18519	-0.00928	1.20047	0.27753	-0.02074	1.51938	0.19227 
4420	36.825	0.20967	1.41789	0.20360	0.15171	1.34726	0.26421	0.19874	1.30907	0.18519	-0.00945	1.20040	0.27727	-0.02076	1.51938	0.19228 
4421	36.833	0.20974	1.41786	0.20356	0.15173	1.34722	0.26422	0.19874	1.30901	0.18520	-0.00968	1.20031	0.27693	-0.02077	1.51937	0.19230 
4422	36.842	0.20983	1.41782	0.20351	0.15176	1.34718	0.26422	0.19875	1.30896	0.18521	-0.00993	1.20021	0.27653	-0.02078	1.51937	0.19232 
4423	36.850	0.20992	1.41777	0.20347	0.15179	1.34713	0.26423	0.19877	1.30890	0.18522	-0.01015	1.20011	0.27619	-0.02079	1.51936	0.19235 
4424	36.858	0.21001	1.41772	0.20342	0.15182	1.34708	0.26425	0.19878	1.30885	0.18523	-0.01030	1.20004	0.27596	-0.02080	1.51935	0.19238 
4425	36.867	0.21012	1.41766	0.20336	0.15186	1.34703	0.26426	0.19880	1.30879	0.18524	-0.01040	1.19998	0.27582	-0.02081	1.51934	0.19241 
4426	36.875	0.21024	1.41760	0.20329	0.15189	1.34698	0.26428	0.19883	1.30874	0.18526	-0.01046	1.19994	0.27574	-0.02081	1.51933	0.19244 
4427	36.883	0.21038	1.41753	0.20322	0.15193	1.34693	0.26431	0.19885	1.30868	0.18527	-0.01048	1.19990	0.27572	-0.02082	1.51932	0.19248 
4428	36.892	0.21055	1.41746	0.20311	0.15196	1.34688	0.26434	0.19887	1.30862	0.18530	-0.01048	1.19987	0.27574	-0.02083	1.51930	0.19251 
4429	36.900	0.21077	1.41736	0.20294	0.15200	1.34684	0.26437	0.19890	1.30857	0.18532	-0.01045	1.19985	0.27582	-0.02084	1.51929	0.19255 
4430	36.908	0.21101	1.41725	0.20277	0.15204	1.34679	0.26440	0.19892	1.30851	0.18535	-0.01038	1.19984	0.27595	-0.02085	1.51928	0.19259 
4431	36.917	0.21121	1.41717	0.20269	0.15207	1.34675	0.26444	0.19894	1.30846	0.18538	-0.01028	1.19985	0.27614	-0.02086	1.51927	0.19263 
4432	36.925	0.21131	1.41714	0.20278	0.15211	1.34671	0.26448	0.19897	1.30842	0.18541	-0.01011	1.19988	0.27642	-0.02088	1.51926	0.19267 
4433	36.933	0.21140	1.41716	0.20298	0.15214	1.34667	0.26452	0.19899	1.30837	0.18544	-0.00988	1.19995	0.27680	-0.02089	1.51925	0.19272 
4434	36.942	0.21151	1.41718	0.20316	0.15218	1.34664	0.26457	0.19902	1.30833	0.18548	-0.00960	1.20004	0.27726	-0.02091	1.51924	0.19276 
4435	36.950	0.21163	1.41721	0.20331	0.15222	1.34661	0.26463	0.19904	1.30829	0.18551	-0.00935	1.20011	0.27766	-0.02093	1.51923	0.19282 
4436	36.958	0.21178	1.41726	0.20342	0.15226	1.34658	0.26468	0.19907	1.30826	0.18555	-0.00916	1.20017	0.27796	-0.02095	1.51923	0.19287 
4437	36.967	0.21193	1.41731	0.20352	0.15230	1.34655	0.26474	0.19909	1.30822	0.18559	-0.00901	1.20020	0.27819	-0.02096	1.51923	0.19293 
4438	36.975	0.21205	1.41733	0.20360	0.15234	1.34653	0.26479	0.19912	1.30818	0.18563	-0.00890	1.20023	0.27837	-0.02098	1.51923	0.19298 
4439	36.983	0.21214	1.41732	0.20368	0.15238	1.34650	0.26485	0.19915	1.30814	0.18567	-0.00881	1.20025	0.27852	-0.02100	1.51923	0.19303 
4440	36.992	0.21222	1.41730	0.20374	0.15242	1.34647	0.26490	0.19918	1.30810	0.18572	-0.00873	1.20027	0.27864	-0.02102	1.51923	0.19308 
4441	37.000	0.21228	1.41726	0.20381	0.15247	1.34644	0.26494	0.19922	1.30806	0.18577	-0.00866	1.20028	0.27874	-0.02104	1.51923	0.19313 
4442	37.008	0.21233	1.41720	0.20386	0.15252	1.34640	0.26500	0.19927	1.30801	0.18582	-0.00860	1.20029	0.27883	-0.02107	1.51923	0.19318 
4443	37.017	0.21240	1.41714	0.20392	0.15257	1.34636	0.26505	0.19932	1.30795	0.18587	-0.00854	1.20030	0.27892	-0.02109	1.51923	0.19322 
4444	37.025	0.21246	1.41706	0.20397	0.15263	1.34632	0.26511	0.19937	1.30789	0.18592	-0.00848	1.20031	0.27899	-0.02111	1.51923	0.19327 
4445	37.033	0.21254	1.41698	0.20401	0.15270	1.34627	0.26517	0.19942	1.30782	0.18598	-0.00843	1.20032	0.27907	-0.02113	1.51923	0.19332 
4446	37.042	0.21262	1.41687	0.20404	0.15277	1.34621	0.26523	0.19949	1.30774	0.18603	-0.00839	1.20033	0.27914	-0.02115	1.51924	0.19337 
4447	37.050	0.21270	1.41675	0.20407	0.15284	1.34616	0.26529	0.19955	1.30765	0.18609	-0.00834	1.20034	0.27921	-0.02116	1.51924	0.19342 
4448	37.058	0.21278	1.41661	0.20408	0.15292	1.34610	0.26535	0.19963	1.30755	0.18614	-0.00830	1.20034	0.27928	-0.02117	1.51924	0.19348 
4449	37.067	0.21287	1.41645	0.20408	0.15300	1.34604	0.26541	0.19971	1.30744	0.18620	-0.00826	1.20035	0.27934	-0.02118	1.51925	0.19354 
4450	37.075	0.21297	1.41625	0.20406	0.15308	1.34597	0.26547	0.19981	1.30730	0.18626	-0.00821	1.20035	0.27941	-0.02118	1.51926	0.19359 
4451	37.083	0.21307	1.41603	0.20403	0.15317	1.34590	0.26553	0.19991	1.30715	0.18632	-0.00817	1.20035	0.27947	-0.02119	1.51926	0.19364 
4452	37.092	0.21317	1.41586	0.20402	0.15326	1.34582	0.26560	0.20001	1.30701	0.18638	-0.00813	1.20035	0.27953	-0.02119	1.51927	0.19369 
4453	37.100	0.21329	1.41573	0.20402	0.15336	1.34574	0.26565	0.20010	1.30688	0.18644	-0.00810	1.20035	0.27960	-0.02120	1.51927	0.19374 
4454	37.108	0.21339	1.41555	0.20400	0.15345	1.34565	0.26571	0.20019	1.30676	0.18649	-0.00806	1.20034	0.27966	-0.02121	1.51927	0.19379 
4455	37.117	0.21350	1.41533	0.20396	0.15355	1.34556	0.26576	0.20028	1.30666	0.18654	-0.00801	1.20034	0.27972	-0.02121	1.51927	0.19383 
4456	37.125	0.21361	1.41512	0.20392	0.15364	1.34547	0.26580	0.20037	1.30656	0.18659	-0.00797	1.20033	0.27978	-0.02122	1.51927	0.19388 
4457	37.133	0.21373	1.41493	0.20389	0.15374	1.34538	0.26585	0.20046	1.30646	0.18664	-0.00793	1.20032	0.27984	-0.02122	1.51927	0.19392 
4458	37.142	0.21385	1.41476	0.20387	0.15385	1.34528	0.26589	0.20055	1.30638	0.18668	-0.00788	1.20031	0.27990	-0.02122	1.51927	0.19397 
4459	37.150	0.21399	1.41461	0.20385	0.15395	1.34519	0.26593	0.20064	1.30630	0.18672	-0.00784	1.20031	0.27995	-0.02122	1.51927	0.19401 
4460	37.158	0.21413	1.41445	0.20385	0.15406	1.34509	0.26597	0.20072	1.30624	0.18676	-0.00779	1.20030	0.28000	-0.02121	1.51927	0.19406 
4461	37.167	0.21429	1.41430	0.20385	0.15417	1.34500	0.26601	0.20080	1.30618	0.18681	-0.00775	1.20029	0.28005	-0.02121	1.51927	0.19410 
4462	37.175	0.21446	1.41413	0.20386	0.15428	1.34490	0.26604	0.20088	1.30614	0.18686	-0.00771	1.20027	0.28009	-0.02120	1.51928	0.19414 
4463	37.183	0.21465	1.41396	0.20388	0.15439	1.34480	0.26608	0.20096	1.30609	0.18690	-0.00768	1.20025	0.28013	-0.02119	1.51928	0.19418 
4464	37.192	0.21485	1.41379	0.20391	0.15451	1.34469	0.26611	0.20104	1.30601	0.18695	-0.00764	1.20023	0.28016	-0.02118	1.51929	0.19423 
4465	37.200	0.21507	1.41363	0.20395	0.15463	1.34458	0.26614	0.20113	1.30592	0.18699	-0.00761	1.20021	0.28019	-0.02117	1.51929	0.19427 
4466	37.208	0.21530	1.41349	0.20399	0.15474	1.34447	0.26616	0.20121	1.30582	0.18703	-0.00758	1.20020	0.28022	-0.02116	1.51930	0.19432 
4467	37.217	0.21556	1.41336	0.20403	0.15486	1.34436	0.26619	0.20131	1.30571	0.18706	-0.00755	1.20018	0.28023	-0.02115	1.51931	0.19436 
4468	37.225	0.21580	1.41323	0.20406	0.15498	1.34425	0.26622	0.20140	1.30558	0.18710	-0.00753	1.20016	0.28025	-0.02114	1.51932	0.19440 
4469	37.233	0.21604	1.41310	0.20407	0.15511	1.34413	0.26625	0.20150	1.30544	0.18714	-0.00751	1.20014	0.28025	-0.02113	1.51933	0.19443 
4470	37.242	0.21626	1.41295	0.20408	0.15523	1.34401	0.26628	0.20159	1.30529	0.18718	-0.00751	1.20011	0.28024	-0.02112	1.51934	0.19447 
4471	37.250	0.21648	1.41279	0.20407	0.15537	1.34389	0.26631	0.20169	1.30514	0.18721	-0.00753	1.20008	0.28021	-0.02110	1.51935	0.19451 
4472	37.258	0.21669	1.41262	0.20407	0.15550	1.34377	0.26635	0.20179	1.30498	0.18724	-0.00757	1.20003	0.28017	-0.02109	1.51936	0.19454 
4473	37.267	0.21689	1.41244	0.20406	0.15564	1.34365	0.26638	0.20189	1.30482	0.18727	-0.00765	1.19997	0.28009	-0.02107	1.51937	0.19457 
4474	37.275	0.21709	1.41225	0.20406	0.15578	1.34352	0.26641	0.20199	1.30465	0.18730	-0.00778	1.19988	0.27997	-0.02105	1.51938	0.19461 
4475	37.283	0.21729	1.41205	0.20406	0.15592	1.34340	0.26645	0.20209	1.30449	0.18733	-0.00797	1.19977	0.27980	-0.02103	1.51939	0.19464 
4476	37.292	0.21748	1.41184	0.20406	0.15606	1.34327	0.26648	0.20219	1.30431	0.18735	-0.00824	1.19963	0.27954	-0.02101	1.51940	0.19467 
4477	37.300	0.21767	1.41163	0.20406	0.15620	1.34314	0.26651	0.20228	1.30414	0.18737	-0.00863	1.19943	0.27918	-0.02098	1.51941	0.19470 
4478	37.308	0.21786	1.41142	0.20405	0.15634	1.34301	0.26654	0.20237	1.30396	0.18738	-0.00918	1.19916	0.27868	-0.02095	1.51942	0.19474 
4479	37.317	0.21804	1.41121	0.20405	0.15648	1.34288	0.26657	0.20246	1.30379	0.18740	-0.00983	1.19886	0.27809	-0.02092	1.51943	0.19477 
4480	37.325	0.21821	1.41099	0.20405	0.15661	1.34275	0.26660	0.20255	1.30361	0.18742	-0.01039	1.19859	0.27757	-0.02089	1.51944	0.19480 
4481	37.333	0.21839	1.41076	0.20405	0.15675	1.34262	0.26663	0.20263	1.30344	0.18743	-0.01079	1.19839	0.27721	-0.02085	1.51945	0.19483 
4482	37.342	0.21857	1.41051	0.20405	0.15689	1.34250	0.26666	0.20271	1.30327	0.18744	-0.01107	1.19824	0.27694	-0.02082	1.51946	0.19486 
4483	37.350	0.21876	1.41024	0.20405	0.15703	1.34237	0.26669	0.20278	1.30311	0.18746	-0.01127	1.19812	0.27676	-0.02078	1.51947	0.19489 
4484	37.358	0.21895	1.40997	0.20406	0.15717	1.34225	0.26672	0.20287	1.30296	0.18747	-0.01141	1.19804	0.27663	-0.02075	1.51949	0.19492 
4485	37.367	0.21915	1.40972	0.20406	0.15732	1.34213	0.26675	0.20296	1.30281	0.18749	-0.01150	1.19797	0.27654	-0.02071	1.51951	0.19495 
4486	37.375	0.21936	1.40953	0.20407	0.15746	1.34202	0.26678	0.20306	1.30268	0.18751	-0.01156	1.19792	0.27648	-0.02067	1.51953	0.19498 
4487	37.383	0.21959	1.40938	0.20407	0.15760	1.34191	0.26681	0.20317	1.30256	0.18755	-0.01159	1.19788	0.27644	-0.02063	1.51956	0.19502 
4488	37.392	0.21983	1.40929	0.20407	0.15773	1.34180	0.26684	0.20329	1.30244	0.18758	-0.01160	1.19784	0.27642	-0.02059	1.51959	0.19505 
4489	37.400	0.22008	1.40926	0.20406	0.15787	1.34169	0.26686	0.20342	1.30233	0.18763	-0.01160	1.19781	0.27640	-0.02055	1.51961	0.19509 
4490	37.408	0.22034	1.40928	0.20406	0.15801	1.34159	0.26689	0.20355	1.30221	0.18766	-0.01158	1.19779	0.27640	-0.02051	1.51962	0.19512 
4491	37.417	0.22064	1.40934	0.20405	0.15815	1.34148	0.26691	0.20367	1.30208	0.18770	-0.01156	1.19777	0.27639	-0.02047	1.51964	0.19515 
4492	37.425	0.22098	1.40942	0.20405	0.15829	1.34137	0.26694	0.20379	1.30194	0.18773	-0.01153	1.19774	0.27639	-0.02043	1.51966	0.19518 
4493	37.433	0.22136	1.40953	0.20405	0.15844	1.34126	0.26696	0.20391	1.30177	0.18776	-0.01150	1.19772	0.27639	-0.02040	1.51968	0.19519 
4494	37.442	0.22173	1.40962	0.20407	0.15858	1.34115	0.26698	0.20405	1.30159	0.18778	-0.01147	1.19771	0.27639	-0.02036	1.51969	0.19521 
4495	37.450	0.22204	1.40962	0.20409	0.15873	1.34104	0.26700	0.20420	1.30142	0.18779	-0.01143	1.19769	0.27640	-0.02033	1.51970	0.19522 
4496	37.458	0.22227	1.40951	0.20411	0.15888	1.34093	0.26702	0.20434	1.30128	0.18782	-0.01139	1.19767	0.27639	-0.02030	1.51971	0.19523 
4497	37.467	0.22244	1.40931	0.20414	0.15903	1.34081	0.26705	0.20445	1.30118	0.18785	-0.01134	1.19765	0.27639	-0.02027	1.51971	0.19524 
4498	37.475	0.22255	1.40901	0.20417	0.15919	1.34069	0.26707	0.20457	1.30109	0.18788	-0.01130	1.19762	0.27639	-0.02024	1.51972	0.19525 
4499	37.483	0.22260	1.40862	0.20419	0.15935	1.34057	0.26710	0.20472	1.30097	0.18789	-0.01126	1.19760	0.27639	-0.02021	1.51972	0.19526 
